# xmcd
#
# Track frame offsets:
#  150
#  15627
#  28397
#  40637
#  51992
#  63467
#  75227
#  86775
#  104650
#  115682
#  132907
#  147130
#  163007
#  177165
#  191637
#  203095
#
# Disc length: 2915 seconds
#
# Revision: 0
# Processed by: cddbd v1.5.2PL0 Copyright (c) Steve Scherf et al.
# Submitted via: Collectorz.com_Music_Collector 6.11
#
DISCID=d90b6110
DTITLE=Various Artist - Baby Boomer Series - Mellow Sixties
DYEAR=1988
DGENRE=60's Compilations
TTITLE0=The Cryan' Shames - Up On The Roof
TTITLE1=Bobby Vinton - Blue Velvet
TTITLE2=The Buckinghams - Hey Baby (They're Playing Our Song)
TTITLE3=The Cyrkle - Turn Down Day
TTITLE4=The Byrds - Wild Mountain Thyme
TTITLE5=The Arbors - Symphony For Susan
TTITLE6=Billy Joe Royal - I Knew You When
TTITLE7=O.C. Smith - Little Green Apples
TTITLE8=Donovan - Wear Your Love Like Heaven
TTITLE9=Marmalade - Butterfly
TTITLE10=Gary Puckett And The Union Gap - This Girl Is A Woman Now
TTITLE11=Blood, Sweat and Tears - You've Made Me So very Happy
TTITLE12=Mark Lindsay - Arizona
TTITLE13=Poco - First Love
TTITLE14=Georgie Fame - Peaceful
TTITLE15=The Byrds - Goin' Back
EXTD=
EXTT0=
EXTT1=
EXTT2=
EXTT3=
EXTT4=
EXTT5=
EXTT6=
EXTT7=
EXTT8=
EXTT9=
EXTT10=
EXTT11=
EXTT12=
EXTT13=
EXTT14=
EXTT15=
PLAYORDER=
